<?xml version="1.0" encoding="iso-8859-1"?>
<!-- Generator: Adobe Illustrator 19.0.0, SVG Export Plug-In . SVG Version: 6.00 Build 0)  -->
<svg xmlns="http://www.w3.org/2000/svg" xmlns:xlink="http://www.w3.org/1999/xlink" version="1.1" id="Layer_1" x="0px" y="0px" viewBox="0 0 512 512" style="enable-background:new 0 0 512 512;" xml:space="preserve" width="512px" height="512px">
<g>
	<g>
		<path d="M491.918,328.415l-63.771-61.73V237.09h63.771l-63.771-61.731v-50.495H473.6V92.183l-43.769-32.421L404.612,0H107.388    l-25.22,59.762L38.4,92.183v32.682h374.073v45.976h-26.122v-31.347h-47.02v31.347h-24.207v-31.347h-47.02v31.347h-1.064    L256,159.801l-11.039,11.039h-1.064v-31.347h-47.02v31.347h-24.207v-31.347h-47.02v31.347H99.527v-32.914H83.853v37.432    l-63.771,61.731h63.771v29.594l-63.771,61.73h63.771v50.492l-63.771,61.73h186.285v55.691H99.527v-42.629H83.853V512h344.294    v-71.363h63.771l-63.771-61.73v-37.43h-15.673v32.914h-26.122v-31.347h-47.02v31.347h-24.207v-31.347h-47.02v31.347h-24.207    v-31.347h-47.02v31.347h-24.206v-31.347h-47.02v31.347H99.527v-45.976H491.918z M132.961,312.741l39.447-39.448l39.448,39.448    H132.961z M161.371,262.165H99.527v-25.076h312.947v25.076h-61.699l-11.037-11.037L328.7,262.165H183.445l-11.037-11.037    L161.371,262.165z M234.021,312.741l-34.902-34.903h113.907l-34.903,34.903H234.021z M300.29,312.741l39.447-39.448l39.448,39.448    H300.29z M453.192,312.741h-51.843l-34.903-34.903h50.689L453.192,312.741z M54.073,109.192v-9.114l40.868-30.273l22.846-54.132    h276.427l22.845,54.132l40.868,30.273v9.114H54.073z M355.004,155.167h15.673v15.673h-15.673V155.167z M283.777,155.167h15.673    v15.673h-15.673V155.167z M417.136,186.514l36.056,34.902H317.616l-34.903-34.902H417.136z M256,181.967l39.45,39.449h-78.9    L256,181.967z M212.549,155.167h15.673v15.673h-15.673V155.167z M141.322,155.167h15.673v15.673h-15.673V155.167z M58.808,221.416    l36.056-34.902h134.423l-34.902,34.902H58.808z M248.163,496.327h-26.122v-55.69h26.122V496.327z M289.959,496.327h-26.122v-55.69    h26.122V496.327z M412.473,496.327H305.633v-55.69h106.841V496.327z M355.004,358.717h15.673v15.673h-15.673V358.717z     M283.777,358.717h15.673v15.673h-15.673V358.717z M212.549,358.717h15.673v15.673h-15.673V358.717z M141.322,358.717h15.673    v15.673h-15.673V358.717z M417.139,390.064l36.053,34.9H58.808l36.053-34.9H417.139z M58.808,312.741l36.056-34.903h50.833    l-34.902,34.903H58.808z" fill="#c7ccdb"/>
	</g>
</g>
<g>
</g>
<g>
</g>
<g>
</g>
<g>
</g>
<g>
</g>
<g>
</g>
<g>
</g>
<g>
</g>
<g>
</g>
<g>
</g>
<g>
</g>
<g>
</g>
<g>
</g>
<g>
</g>
<g>
</g>
</svg>
