<?xml version="1.0" encoding="iso-8859-1"?>
<!-- Generator: Adobe Illustrator 19.0.0, SVG Export Plug-In . SVG Version: 6.00 Build 0)  -->
<svg xmlns="http://www.w3.org/2000/svg" xmlns:xlink="http://www.w3.org/1999/xlink" version="1.1" id="Layer_1" x="0px" y="0px" viewBox="0 0 470 470" style="enable-background:new 0 0 470 470;" xml:space="preserve" width="512px" height="512px">
<g>
	<g>
		<g>
			<path d="M73.184,132.243c-13.785,0-25,11.215-25,25c0,13.785,11.215,25,25,25c13.785,0,25-11.215,25-25     C98.184,143.458,86.969,132.243,73.184,132.243z M73.184,167.243c-5.514,0-10-4.486-10-10s4.486-10,10-10c5.514,0,10,4.486,10,10     S78.697,167.243,73.184,167.243z" fill="#2a324b"/>
			<path d="M189.393,132.243c-13.785,0-25,11.215-25,25c0,13.785,11.215,25,25,25c13.785,0,25-11.215,25-25     C214.393,143.458,203.178,132.243,189.393,132.243z M189.393,167.243c-5.514,0-10-4.486-10-10s4.486-10,10-10     c5.514,0,10,4.486,10,10S194.906,167.243,189.393,167.243z" fill="#2a324b"/>
			<path d="M156.288,127.139c0-13.785-11.215-25-25-25c-13.785,0-25,11.215-25,25c0,13.785,11.215,25,25,25     C145.073,152.139,156.288,140.924,156.288,127.139z M121.288,127.139c0-5.514,4.486-10,10-10c5.514,0,10,4.486,10,10     c0,5.514-4.486,10-10,10C125.774,137.139,121.288,132.653,121.288,127.139z" fill="#2a324b"/>
			<path d="M265.5,212.743c-12.406,0-22.5,10.093-22.5,22.5s10.094,22.5,22.5,22.5s22.5-10.093,22.5-22.5     S277.906,212.743,265.5,212.743z M265.5,242.743c-4.136,0-7.5-3.364-7.5-7.5s3.364-7.5,7.5-7.5s7.5,3.364,7.5,7.5     S269.636,242.743,265.5,242.743z" fill="#2a324b"/>
			<circle cx="325.5" cy="214.243" r="10" fill="#2a324b"/>
			<path d="M385.5,170.743c-12.406,0-22.5,10.093-22.5,22.5s10.094,22.5,22.5,22.5s22.5-10.093,22.5-22.5     S397.906,170.743,385.5,170.743z M385.5,200.743c-4.136,0-7.5-3.364-7.5-7.5s3.364-7.5,7.5-7.5s7.5,3.364,7.5,7.5     S389.636,200.743,385.5,200.743z" fill="#2a324b"/>
			<path d="M390.472,97.958C334.774,69.839,264.467,54.354,192.5,54.354c-54.442,0-104.025,13.498-139.616,38.007     C19.275,115.504,0,147.172,0,179.243C0,222.046,33.278,262.1,87.217,284.68v98.466c0,17.92,14.579,32.5,32.5,32.5h18.264     c16.929,0,34.864-12.409,40.832-28.25l31.489-83.585c67.354-2.371,132.521-18.378,184.012-45.263     C440.999,234.173,470,203.785,470,179.243C470,153.87,439.526,122.724,390.472,97.958z M387.371,245.251     c-50.79,26.518-115.604,42.043-182.504,43.716c-3.053,0.076-5.754,1.996-6.831,4.854l-33.261,88.287     c-3.721,9.875-16.241,18.539-26.795,18.539h-18.264c-9.649,0-17.5-7.851-17.5-17.5V279.625c0-3.088-1.894-5.861-4.77-6.985     C46.592,252.763,15,216.976,15,179.243c0-27.062,16.909-54.226,46.391-74.528C94.504,81.912,141.066,69.354,192.5,69.354     c69.663,0,137.57,14.914,191.212,41.995C432.691,136.076,455,163.877,455,179.243C455,194.523,434.089,220.859,387.371,245.251z" fill="#2a324b"/>
			<path d="M173.603,288.572c-16.418-0.99-32.277-3.304-47.136-6.877c-4.036-0.969-8.077,1.511-9.046,5.538     c-0.969,4.027,1.511,8.077,5.538,9.046c15.712,3.779,32.447,6.224,49.741,7.266c0.153,0.009,0.307,0.014,0.458,0.014     c3.936,0,7.239-3.068,7.479-7.049C180.887,292.375,177.737,288.821,173.603,288.572z" fill="#2a324b"/>
			<path d="M137.859,370.646h-13.143c-4.143,0-7.5,3.358-7.5,7.5c0,4.142,3.357,7.5,7.5,7.5h13.143c4.143,0,7.5-3.358,7.5-7.5     C145.359,374.004,142.002,370.646,137.859,370.646z" fill="#2a324b"/>
		</g>
	</g>
</g>
<g>
</g>
<g>
</g>
<g>
</g>
<g>
</g>
<g>
</g>
<g>
</g>
<g>
</g>
<g>
</g>
<g>
</g>
<g>
</g>
<g>
</g>
<g>
</g>
<g>
</g>
<g>
</g>
<g>
</g>
</svg>
